<?xml version="1.0" encoding="UTF-8"?>
<svg width="50px" height="50px" version="1.1" viewBox="0 0 50 50" xmlns="http://www.w3.org/2000/svg" fill="#ee3676">
 <path d="m25.031 0.85352a24.3 24.3 0 0 0-24.301 24.299 24.3 24.3 0 0 0 24.301 24.299 24.3 24.3 0 0 0 24.299-24.299 24.3 24.3 0 0 0-24.299-24.299zm11.969 10.146c1.1 0 2 0.9 2 2s-0.9 2-2 2-2-0.9-2-2 0.9-2 2-2zm-12 3c6.07 0 11 4.93 11 11s-4.93 11-11 11-11-4.93-11-11 4.93-11 11-11zm0 2c-4.96 0-9 4.04-9 9s4.04 9 9 9 9-4.04 9-9-4.04-9-9-9z"/>
</svg>
