<?xml version="1.0" encoding="UTF-8"?>
<svg width="50px" height="50px" version="1.1" viewBox="0 0 50 50" xmlns="http://www.w3.org/2000/svg">
 <path d="m25.031 0.26562a24.642 24.763 0 0 0-24.643 24.764 24.642 24.763 0 0 0 24.643 24.764 24.642 24.763 0 0 0 24.641-24.764 24.642 24.763 0 0 0-24.641-24.764zm-11.031 11.734c1.8 0 2.93 1.0707 3 2.4707 0 1.4-1.12 2.5293-3 2.5293-1.8 0-3-1.1293-3-2.5293 0-1.4 1.2-2.4707 3-2.4707zm-3 8h6v19h-6v-19zm9 0h6v2.5605s1.9306-2.5605 5.8105-2.5605c3.97 0 7.1895 2.7298 7.1895 8.2598v10.74h-6v-10c0-2-1-3.9991-3.5-4.0391h-0.080078c-2.42 0-3.4199 2.0591-3.4199 4.0391v10h-6v-19z" fill="#001825"/>
</svg>
