<?xml version="1.0" encoding="UTF-8"?>
<svg width="50px" height="50px" version="1.1" viewBox="0 0 50 50" xmlns="http://www.w3.org/2000/svg">
 <path d="m24.969 0.12109a24.726 24.848 0 0 0-24.725 24.848 24.726 24.848 0 0 0 24.725 24.848 24.726 24.848 0 0 0 24.727-24.848 24.726 24.848 0 0 0-24.727-24.848zm1.9805 5.6543c9.3302 0 16.91 7.58 16.91 16.91 0 9.3302-7.58 16.91-16.91 16.91-2.8728 0-5.5635-0.75425-7.9336-2.0195l-8.0645 1.998a0.73529 0.73529 0 0 1-0.88477-0.91211l2.166-7.7363c-1.3717-2.4432-2.1934-5.2412-2.1934-8.2402 0-9.3302 7.58-16.91 16.91-16.91zm0 1.4707c-8.5355 0-15.439 6.904-15.439 15.439 0 2.86 0.77881 5.5321 2.1328 7.8281a0.73529 0.73529 0 0 1 0.074219 0.57227l-1.8945 6.7578 7.0645-1.75a0.73529 0.73529 0 0 1 0.53516 0.072266c2.228 1.2467 4.7909 1.959 7.5273 1.959 8.5355 0 15.439-6.904 15.439-15.439 0-8.5355-6.904-15.439-15.439-15.439zm-6.1445 6.6172c0.29589 0 0.59347 0.003085 0.86523 0.015625h0.001953c0.01361 6.74e-4 0.34964-0.048715 0.73047 0.12891 0.38083 0.17762 0.67141 0.54552 0.88672 1.0566 0.18277 0.43388 0.49035 1.1755 0.76563 1.8359 0.13764 0.33024 0.26809 0.64002 0.36914 0.87891 0.1008 0.2382 0.19419 0.44491 0.18359 0.42383v0.001953c0.15341 0.3047 0.30033 0.88387 0.035156 1.4102-0.13305 0.26407-0.2549 0.54657-0.5332 0.86719-0.19629 0.22613-0.42929 0.53284-0.69141 0.79102l-0.001953 0.001953c-0.03656 0.03589-0.015924 0.01068-0.033204 0.03125 0.25647 0.43091 1.0679 1.7146 2.2285 2.7363v0.001953c0.77978 0.68741 1.4928 1.1311 2.0625 1.4316 0.56966 0.3005 0.95476 0.43211 1.2695 0.58789 0.10054 0.04964 0.078532 0.038916 0.082032 0.041016 0.2545-0.28967 1.0895-1.2747 1.2969-1.582 0.21877-0.32428 0.59414-0.59755 0.97461-0.64063 0.38047-0.043084 0.64341 0.068775 0.85938 0.14648 0.34183 0.12188 0.89803 0.39181 1.5391 0.69726 0.64175 0.3058 1.2811 0.61729 1.5059 0.72852 0.40447 0.20018 0.79247 0.21534 1.1348 0.77734 0.16321 0.26794 0.14817 0.40298 0.16211 0.57812 0.0139 0.17515 0.010907 0.36377-0.007813 0.57812-0.037439 0.42871-0.14009 0.94989-0.34375 1.5137-0.28429 0.78641-0.93011 1.3044-1.5879 1.7207-0.65778 0.41627-1.3213 0.7059-1.9258 0.79492-0.80755 0.11899-1.8822 0.17531-3.0625-0.19531-0.63689-0.19991-1.4794-0.47398-2.5449-0.92773-2.3138-0.98679-4.178-2.6-5.5039-3.9961-0.66296-0.69802-1.189-1.3431-1.5664-1.834-0.37738-0.49092-0.66028-0.90083-0.64062-0.875h-0.001953c-0.20725-0.27399-1.9219-2.4075-1.9219-4.8789 0-2.3705 1.3847-3.7183 1.7168-4.0762 0.55292-0.59577 1.226-0.77148 1.6973-0.77148zm0 1.4707c-0.10805 0-0.3751 0.037826-0.61914 0.30078-0.46486 0.50088-1.3242 1.2266-1.3242 3.0762 0 1.7477 1.3953 3.687 1.623 3.9883l0.001953 0.001953c0.12833 0.16878 0.28231 0.40673 0.63477 0.86523 0.35312 0.45936 0.84924 1.0665 1.4688 1.7188 1.239 1.3046 2.9729 2.7859 5.0137 3.6562 1.0063 0.4285 1.783 0.68329 2.4062 0.87891 0.89888 0.28225 1.7169 0.24415 2.4062 0.14258 0.22927-0.033764 0.84879-0.26015 1.3574-0.58203 0.50863-0.32188 0.91279-0.76431 0.99023-0.97852 0.15807-0.43757 0.23594-0.84729 0.26172-1.1426 0.0093-0.10646 0.008459-0.17556 0.005859-0.24024-0.036815-4.78e-4 -0.18074-0.098739-0.48242-0.24805-0.20904-0.10346-0.85249-0.41672-1.4863-0.71875-0.63384-0.30203-1.3436-0.6204-1.4004-0.64062h-0.001953v-0.001953c-0.12431-0.04475-0.1189-0.039322-0.13476-0.044922-0.37405 0.54861-1.1537 1.4389-1.416 1.7363l-0.001953 0.001954c-0.19711 0.22289-0.5061 0.4393-0.86523 0.48242-0.35914 0.043122-0.66857-0.065217-0.95117-0.20508-0.11901-0.058899-0.64974-0.25906-1.3027-0.60352-0.65299-0.34446-1.4703-0.8574-2.3477-1.6309-1.3932-1.2266-2.2904-2.6846-2.5625-3.1465-0.20434-0.3469-0.26408-0.81173-0.13672-1.1504 0.12717-0.33814 0.33048-0.51216 0.44336-0.62305 0.12902-0.12708 0.37237-0.4337 0.61133-0.70898 0.15694-0.1808 0.17883-0.25652 0.33398-0.56445 0.02212-0.04386 0.028464 0.037645-0.035156-0.087891l-0.001953-0.001953v-0.001953c-0.064896-0.12979-0.12141-0.26593-0.22461-0.50977-0.1032-0.24383-0.23107-0.5535-0.36914-0.88476-0.27613-0.66253-0.58667-1.4072-0.76562-1.832-0.068435-0.16244-0.11735-0.24126-0.14453-0.27734l-0.001953-0.001953c-0.023442 4.41e-4 -0.072299-0.002169-0.18555-0.007813-0.23405-0.01086-0.51342-0.013672-0.79687-0.013672z" fill="#25d366" stroke-width="1.0025"/>
</svg>
