<svg width="50px" height="50px" version="1.1" viewBox="0 0 50 50" xmlns="http://www.w3.org/2000/svg">
 <path d="m25.062 0.60051a24.571 24.571 0 0 0-24.57 24.57 24.571 24.571 0 0 0 24.57 24.572 24.571 24.571 0 0 0 24.57-24.572 24.571 24.571 0 0 0-24.57-24.57zm0.93555 8.9062c8.0355 0 14.572 6.535 14.572 14.57 0 8.0355-6.5369 14.572-14.572 14.572-2.4089 0-4.6591-0.63563-6.6562-1.6699l-6.6172 1.6406c-0.35348 0.08753-0.75036-0.02768-1.0039-0.28906-0.25356-0.26138-0.35411-0.65912-0.25586-1.0098l1.7656-6.3125c-1.1246-2.0622-1.8047-4.413-1.8047-6.9316 1e-6 -8.0355 6.5369-14.57 14.572-14.57zm0 2.0938c-6.9038 0-12.479 5.5732-12.479 12.477 1e-6 2.3129 0.63018 4.4723 1.7246 6.3281 0.14255 0.24207 0.1811 0.54196 0.10547 0.8125v2e-3l-1.3828 4.9355 5.1855-1.2852c0.25483-0.06285 0.53268-0.02662 0.76172 0.10156 1.8009 1.0077 3.871 1.584 6.084 1.584 6.9038 0 12.477-5.5751 12.477-12.479 0-6.9038-5.5732-12.477-12.477-12.477zm-5.1387 4.7285c0.2395 0 0.48402 0.0018 0.71484 0.01172 0.01221-1e-3 0.02872-3e-3 0.04883-0.0039 0.04501-2e-3 0.10653-0.0034 0.17969 2e-3 0.14633 0.01078 0.34116 0.04481 0.55078 0.14258 0.43223 0.20159 0.72585 0.60087 0.92773 1.0801 0.15364 0.36474 0.41254 0.98328 0.64258 1.5352 0.11445 0.2746 0.22237 0.53123 0.30664 0.73047v2e-3c0.04734 0.1098 0.08804 0.20578 0.14258 0.33398 0.1709 0.33941 0.32563 0.92743 0.0293 1.5156-0.1042 0.2068-0.2275 0.49329-0.49609 0.80273-0.10458 0.12048-0.26571 0.30265-0.41797 0.47461 0.27479 0.43902 0.83058 1.2652 1.6387 1.9766 0.62709 0.5528 1.1946 0.90802 1.6504 1.1484 0.36829 0.19427 0.60608 0.28451 0.85156 0.39453 0.29052-0.34151 0.77901-0.92229 0.87891-1.0703 0.23933-0.35476 0.61588-0.64449 1.082-0.69727 0.40876-0.04628 0.72299 0.08359 0.88672 0.14258h2e-3c0.32862 0.11732 0.78598 0.34111 1.3203 0.5957 0.53885 0.25677 1.0727 0.51684 1.2637 0.61133 0.12992 0.0643 0.29574 0.11042 0.5 0.2168 0.20426 0.10638 0.4285 0.28691 0.60352 0.57422 0.17007 0.27922 0.18055 0.53627 0.18945 0.64844 0.01387 0.17419 9e-3 0.35386-0.0078 0.54687-0.03415 0.3911-0.12688 0.85632-0.30859 1.3594-0.28144 0.77853-0.90535 1.2649-1.4805 1.6289-0.57981 0.36692-1.172 0.63112-1.7539 0.7168-0.70599 0.10403-1.6676 0.15674-2.7266-0.17578-0.53554-0.1681-1.2575-0.40302-2.1641-0.78906-2.0034-0.8544-3.5965-2.2379-4.7266-3.4277-0.56537-0.59527-1.0143-1.1441-1.3359-1.5625-0.16086-0.20926-0.30014-0.40047-0.39844-0.53711-0.04915-0.06832-0.08738-0.12312-0.11328-0.16016-0.01018-0.01456-0.01899-0.0238-0.02539-0.0332a0.37405 0.37405 0 0 0-2e-3 -2e-3c-4e-4 -5e-4 -0.0035-0.0073-0.0039-0.0078-0.0035-0.0052-0.0051-0.0072-0.01172-0.01758-0.0016-0.0026-0.0077-0.01349-0.0078-0.01367-0.08666-0.11326-0.49073-0.62153-0.87695-1.3672-0.39705-0.76656-0.7793-1.7808-0.7793-2.9004 1e-6 -2.1277 1.2917-3.3997 1.5352-3.6621 0.5402-0.58206 1.2047-0.76367 1.6914-0.76367zm0 1.9746a0.37405 0.37405 0 0 0 0 2e-3c-0.0018 0-0.12024-6.84e-4 -0.24414 0.13281-0.42251 0.45525-1.0078 0.8877-1.0078 2.3184 0 1.2622 1.1148 2.8865 1.2832 3.1094 0.12283 0.16154 0.24267 0.34725 0.53125 0.72266 0.28923 0.37624 0.69428 0.87258 1.2012 1.4062 1.0134 1.067 2.4326 2.2751 4.0684 2.9727 0.82666 0.352 1.4591 0.55828 1.9766 0.7207 0.68054 0.21369 1.2982 0.1881 1.8457 0.10742 0.02487-0.0037 0.20342-0.05356 0.39258-0.13086s0.40956-0.18369 0.59766-0.30273c0.18502-0.11709 0.35702-0.26088 0.48242-0.38867s0.20374-0.26894 0.19336-0.24023c0.11256-0.31158 0.16331-0.59618 0.18555-0.80664-0.0537-0.02911-0.10145-0.05503-0.17969-0.09375-0.1712-0.08474-0.70859-0.34812-1.2363-0.59961-0.26196-0.12482-0.54273-0.25423-0.76172-0.35352-0.09928-0.04502-0.18116-0.08167-0.24805-0.11133-0.35446 0.46962-0.83175 1.0413-1.0176 1.252a0.37405 0.37405 0 0 1-0.0039 2e-3c-0.21474 0.24283-0.53779 0.47482-0.95898 0.52539-0.39786 0.04777-0.74008-0.07354-1.0059-0.20508-0.0035-0.0017-0.16425-0.06961-0.36133-0.15625-0.19708-0.08664-0.45294-0.20597-0.73633-0.35547-0.56751-0.29937-1.2785-0.74336-2.0371-1.4121-1.2155-1.0701-1.9815-2.3232-2.2168-2.7227-0.22899-0.38874-0.29999-0.85748-0.14062-1.2812 0.13746-0.3655 0.38454-0.58321 0.45898-0.65625 0.05917-0.05828 0.27985-0.33411 0.48828-0.57422 0.06974-0.08034 0.10716-0.16989 0.14648-0.25-0.0437-0.09499-0.08273-0.1814-0.14648-0.33203-0.08747-0.20667-0.19547-0.4661-0.31055-0.74219-0.23076-0.55368-0.48949-1.1771-0.63867-1.5312-0.0052-0.01233-3e-3 -0.0048-0.0078-0.01563-0.17517-7e-3 -0.37678-0.0098-0.58984-0.0098zm1.709 2.582 0.0039 0.01758 2e-3 -2e-3a0.37405 0.37405 0 0 1-0.0059-0.01563zm7.1289 5.666 0.07031 0.09961 0.06445-0.02148a0.37405 0.37405 0 0 1-0.13476-0.07813z" fill="#25d366"/>
 <g fill="#4d4d4d" stroke-width=".83614">
  <path d="m36.136 35.98c0.0037 0.0036 0.0065 0.0082 0.0065 0.0082l-0.14044 0.13065 0.13391-0.13881z"/>
  <path d="m38.176 35.703a0.19298 0.19298 0 0 0 0.0294 0.0294l-0.04573-0.0082c0.0053-0.0073 0.01116-0.01401 0.01633-0.02123z"/>
  <path d="m38.016 35.543a0.19298 0.19298 0 0 0 0.10778 0.10778l-0.02613 0.0082z"/>
  <path d="m31.018 30.065a0.19298 0.19298 0 0 0 0.01633 0.04246c-0.0023 0.0045-0.0028 0.0054-0.0049 0.0098z"/>
 </g>
</svg>
