<svg width="50" height="50" version="1.1" viewBox="0 0 50 50" xmlns="http://www.w3.org/2000/svg">
 <path d="m25.016 0.55469a24.462 24.462 0 0 0-24.461 24.461 24.462 24.462 0 0 0 24.461 24.461 24.462 24.462 0 0 0 24.461-24.461 24.462 24.462 0 0 0-24.461-24.461zm0.47852 10.307c3.708 0.001387 7.1855 1.4439 9.8027 4.0625 2.6172 2.62 4.0575 6.1028 4.0547 9.8066-0.004164 7.6394-6.2219 13.855-13.861 13.855h-0.003906c-2.3203-0.001387-4.6003-0.58092-6.625-1.6855l-7.2617 1.7148 1.8809-6.9707c-1.2129-2.101-1.8509-4.4853-1.8496-6.9277 0.002776-7.6408 6.2225-13.855 13.863-13.855zm-0.003907 2.7754c-6.1102 0-11.083 4.9713-11.086 11.08-0.001388 1.947 0.51184 3.8646 1.4805 5.541l0.57422 0.99609-0.30078 1.1113-0.66602 2.4785 2.7324-0.64648 1.0332-0.24219 0.93359 0.50781c1.6139 0.88121 3.447 1.3464 5.2969 1.3477 6.1143 0 11.085-4.9705 11.088-11.082 0.002777-2.9614-1.1481-5.7463-3.2422-7.8418-2.0941-2.0927-4.8796-3.2487-7.8438-3.25zm-4.9023 4.6836c0.23036 1e-6 0.46089-5.87e-4 0.66211 0.007813 0.24702 0.009714 0.51979 0.023702 0.7793 0.59961 0.30808 0.68554 0.98234 2.3969 1.0684 2.5703 0.08604 0.17347 0.14448 0.37511 0.029297 0.60547-0.11518 0.23036-0.17362 0.37552-0.3457 0.57812-0.17347 0.20261-0.36215 0.452-0.51758 0.60742-0.17346 0.17208-0.35747 0.36149-0.15625 0.70703 0.20261 0.34693 0.89804 1.4792 1.9277 2.3965 1.3239 1.1796 2.4402 1.5458 2.7871 1.7207 0.34693 0.17346 0.54739 0.14191 0.75-0.089843 0.20261-0.23036 0.86534-1.0085 1.0957-1.3555 0.23036-0.34693 0.46151-0.28706 0.7793-0.17188 0.31779 0.11518 2.0216 0.94958 2.3672 1.123 0.34693 0.17347 0.57803 0.25997 0.66406 0.4043 0.08604 0.14293 0.08552 0.83939-0.20312 1.6484-0.28865 0.80904-1.7043 1.5876-2.3398 1.6445-0.63558 0.058284-1.229 0.28601-4.1543-0.86719-3.5207-1.3877-5.7459-4.9942-5.918-5.2246-0.17347-0.23175-1.4141-1.8799-1.4141-3.584 0-1.7041 0.89705-2.5412 1.2148-2.8867 0.31779-0.34694 0.69208-0.43359 0.92383-0.43359z" fill="#1eb726" stroke-dashoffset="69.694" stroke-linecap="round" stroke-width="6.6197"/>
</svg>
